<svg width="87.195mm" height="29.88mm" version="1.1" viewBox="0 0 87.195 29.88" xmlns="http://www.w3.org/2000/svg">
 <g transform="translate(-68.282 -201.87)">
  <g stroke-width=".54693" aria-label="BrainFill">
   <path d="m73.336 219.05q-1.247 0-2.494-0.0875-1.2251-0.0656-2.5596-0.35003v-14.701q1.0501-0.19689 2.2971-0.2844 1.247-0.10938 2.319-0.10938 1.4439 0 2.6471 0.21877 1.2251 0.19689 2.1002 0.70006t1.3564 1.3345q0.50317 0.80945 0.50317 2.0127 0 1.8158-1.7502 2.8659 1.4439 0.54693 1.9689 1.4876t0.52505 2.1221q0 2.3846-1.7502 3.5878-1.7283 1.2032-5.163 1.2032zm-1.7283-6.8038v3.916q0.37191 0.0438 0.80945 0.0656 0.43754 0.0219 0.96259 0.0219 1.5314 0 2.4721-0.43754t0.94071-1.6189q0-1.0501-0.78757-1.4876-0.78757-0.45942-2.2533-0.45942zm0-2.6034h1.6627q1.5751 0 2.2533-0.39379 0.67819-0.41566 0.67819-1.3126 0-0.91883-0.70006-1.2907t-2.0564-0.37191q-0.43754 0-0.94071 0.0219-0.50317 0-0.89696 0.0437z"/>
   <path d="m89.697 210.23q-0.43754-0.10939-1.0282-0.21877-0.59068-0.13126-1.2689-0.13126-0.30628 0-0.74382 0.0656-0.41566 0.0437-0.63443 0.10938v8.7946h-3.2597v-10.895q0.87508-0.30628 2.0564-0.5688 1.2032-0.2844 2.669-0.2844 0.26252 0 0.63443 0.0437 0.37191 0.0219 0.74382 0.0875 0.37191 0.0437 0.74382 0.13126 0.37191 0.0656 0.63443 0.17502z"/>
   <path d="m96.175 216.58q0.48129 0 0.91883-0.0219t0.70006-0.0656v-2.4721q-0.19689-0.0437-0.59068-0.0875-0.39379-0.0437-0.72194-0.0437-0.45942 0-0.87508 0.0656-0.39379 0.0437-0.70006 0.19689-0.30628 0.15314-0.48129 0.41566-0.17502 0.26253-0.17502 0.65631 0 0.7657 0.50317 1.072 0.52505 0.2844 1.422 0.2844zm-0.26252-9.5384q1.4439 0 2.4065 0.32815 0.96259 0.32816 1.5314 0.94071 0.59068 0.61256 0.83132 1.4876 0.24065 0.87508 0.24065 1.947v6.7819q-0.70006 0.15314-1.9471 0.35003-1.247 0.21877-3.019 0.21877-1.1157 0-2.0346-0.19689-0.89696-0.19689-1.5533-0.63443-0.65631-0.45942-1.0063-1.1814t-0.35003-1.772q0-1.0063 0.39379-1.7064 0.41566-0.70007 1.0938-1.1157t1.5533-0.59068q0.87508-0.19689 1.8158-0.19689 0.63443 0 1.1157 0.0656 0.50317 0.0438 0.80945 0.13126v-0.30628q0-0.83132-0.50317-1.3345t-1.7502-0.50318q-0.83133 0-1.6408 0.13127-0.80945 0.10938-1.4001 0.32815l-0.41566-2.6252q0.2844-0.0875 0.70006-0.17501 0.43754-0.10939 0.94071-0.17502 0.50317-0.0875 1.0501-0.13126 0.5688-0.0656 1.1376-0.0656z"/>
   <path d="m107.13 218.85h-3.2597v-11.507h3.2597zm0.30628-14.833q0 0.89696-0.59068 1.422-0.5688 0.50318-1.3564 0.50318-0.78757 0-1.3782-0.50318-0.5688-0.52504-0.5688-1.422t0.5688-1.4001q0.59068-0.52505 1.3782-0.52505 0.78758 0 1.3564 0.52505 0.59068 0.50317 0.59068 1.4001z"/>
   <path d="m110.19 207.74q0.83133-0.24065 2.144-0.43754 1.3126-0.21877 2.7565-0.21877 1.4658 0 2.4284 0.39379 0.98446 0.37191 1.5533 1.072 0.5688 0.70006 0.80944 1.6626 0.24065 0.96259 0.24065 2.144v6.4975h-3.2597v-6.1037q0-1.5751-0.41566-2.2314-0.41567-0.65631-1.5533-0.65631-0.35003 0-0.74382 0.0438-0.39379 0.0219-0.70006 0.0656v8.8821h-3.2597z"/>
   <path d="m123.32 218.85v-15.161h10.151v2.8659h-6.7381v3.1722h5.9943v2.8659h-5.9943v6.2568z"/>
   <path d="m138.92 218.85h-3.2597v-11.507h3.2597zm0.30628-14.833q0 0.89696-0.59068 1.422-0.5688 0.50318-1.3564 0.50318-0.78758 0-1.3783-0.50318-0.5688-0.52504-0.5688-1.422t0.5688-1.4001q0.59068-0.52505 1.3783-0.52505 0.78757 0 1.3564 0.52505 0.59068 0.50317 0.59068 1.4001z"/>
   <path d="m146.58 219.07q-1.422-0.0219-2.319-0.30628-0.87508-0.2844-1.4001-0.78757-0.50317-0.52505-0.70006-1.247-0.17502-0.74382-0.17502-1.6626v-12.667l3.2597-0.52505v12.536q0 0.43754 0.0656 0.78757t0.24065 0.59068q0.19689 0.24064 0.54693 0.39378 0.35003 0.15314 0.94071 0.1969z"/>
   <path d="m153.5 219.07q-1.422-0.0219-2.319-0.30628-0.87508-0.2844-1.4001-0.78757-0.50317-0.52505-0.70006-1.247-0.17502-0.74382-0.17502-1.6626v-12.667l3.2597-0.52505v12.536q0 0.43754 0.0656 0.78757t0.24065 0.59068q0.19689 0.24064 0.54693 0.39378 0.35003 0.15314 0.94071 0.1969z"/>
   <text x="100.03115" y="228.78871" font-family="Ubuntu" font-size="9.2604px" stroke-width=".26458" style="line-height:1.25" xml:space="preserve"><tspan x="100.03115" y="228.78871" font-size="9.2604px" stroke-width=".26458">Study smart.</tspan></text>
  </g>
 </g>
 <path d="m54.288 19.009c0.08646-0.01292 0.17256-0.03066 0.25939-0.03876 0.89076-0.08302 1.7925-0.07574 2.6844-0.0882 1.3425-0.01875 2.4829-0.02279 3.8398-0.03119 5.0885-0.01727 10.177-0.0422 15.265 0.01449 2.5276 0.0428 5.0546 0.13908 7.577 0.34956l1.2042-1.0896c-2.524-0.21668-5.0527-0.31328-7.5821-0.35836-5.0887-0.05861-10.177-0.03325-15.267-0.01658-2.2665 0.0135-4.5364-0.0096-6.8007 0.12921l-1.181 1.1294z" fill="#ffde00" opacity=".997" stroke="#ffde00" stroke-width=".59252"/>
 <path d="m59.073 29.576c0.23614-0.02561 0.47163-0.05816 0.70842-0.0768 1.9964-0.15716 4.007-0.18215 6.0078-0.2194 3.1092-0.05787 3.5999-0.05057 6.7931-0.07039 3.3524 0.01945 6.7024 0.14134 10.051 0.28007l1.9082-1.3743c-3.3513-0.14157-6.7034-0.26475-10.058-0.28917-3.2599 0.01871-3.6255 0.01045-6.7954 0.06724-2.0052 0.03592-4.0172 0.06445-6.0188 0.20449-0.23886 0.01672-0.47675 0.04521-0.71512 0.06782l-1.8817 1.4104z" fill="#ffde00" opacity=".997" stroke="#ffde00" stroke-width=".26855"/>
</svg>
